<svg xmlns="http://www.w3.org/2000/svg" viewBox="0 0 232 48" width="232" height="48" role="img" aria-label="JoinOrigin">
  <path d="M 22.29 5.03 C 22.08 5.11 21.81 5.31 21.68 5.5 C 21.56 5.69 21.57 5.95 21.55 6.17 C 21.53 6.4 21.55 6.62 21.55 6.84 C 21.55 7.07 21.55 7.29 21.55 7.51 C 21.55 7.73 21.55 7.96 21.55 8.18 C 21.55 8.4 21.55 8.63 21.55 8.85 C 21.55 9.07 21.55 9.3 21.55 9.52 C 21.55 9.74 21.55 9.97 21.55 10.19 C 21.55 10.41 21.55 10.64 21.55 10.86 C 21.55 11.08 21.55 11.31 21.55 11.53 C 21.55 11.75 21.55 11.97 21.55 12.2 C 21.55 12.42 21.55 12.64 21.55 12.87 C 21.55 13.09 21.55 13.31 21.55 13.54 C 21.55 13.76 21.55 13.98 21.55 14.21 C 21.55 14.43 21.55 14.65 21.55 14.88 C 21.55 15.1 21.55 15.32 21.55 15.54 C 21.55 15.77 21.55 15.99 21.55 16.21 C 21.55 16.44 21.55 16.66 21.55 16.88 C 21.55 17.11 21.55 17.33 21.55 17.55 C 21.55 17.78 21.55 18.0 21.55 18.22 C 21.55 18.45 21.55 18.67 21.55 18.89 C 21.55 19.12 21.55 19.34 21.55 19.56 C 21.55 19.78 21.55 20.01 21.55 20.23 C 21.55 20.45 21.55 20.68 21.55 20.9 C 21.55 21.12 21.55 21.35 21.55 21.57 C 21.55 21.79 21.55 22.02 21.55 22.24 C 21.55 22.46 21.55 22.69 21.55 22.91 C 21.55 23.13 21.55 23.35 21.55 23.58 C 21.55 23.8 21.55 24.02 21.55 24.25 C 21.55 24.47 21.55 24.69 21.55 24.92 C 21.55 25.14 21.55 25.36 21.55 25.59 C 21.55 25.81 21.55 26.03 21.55 26.26 C 21.55 26.48 21.55 26.7 21.55 26.93 C 21.55 27.15 21.55 27.37 21.55 27.59 C 21.55 27.82 21.55 28.04 21.55 28.26 C 21.55 28.49 21.55 28.71 21.55 28.93 C 21.55 29.16 21.56 29.38 21.55 29.6 C 21.54 29.83 21.52 30.05 21.48 30.27 C 21.45 30.5 21.42 30.72 21.35 30.94 C 21.28 31.16 21.19 31.39 21.08 31.61 C 20.97 31.83 20.86 32.06 20.68 32.28 C 20.5 32.5 20.23 32.77 20.01 32.95 C 19.79 33.13 19.56 33.24 19.34 33.35 C 19.12 33.46 18.89 33.54 18.67 33.62 C 18.45 33.7 18.22 33.78 18.0 33.82 C 17.78 33.87 17.55 33.89 17.33 33.89 C 17.11 33.89 16.89 33.85 16.66 33.82 C 16.44 33.79 16.22 33.75 15.99 33.69 C 15.77 33.62 15.55 33.52 15.32 33.42 C 15.1 33.32 14.88 33.23 14.65 33.08 C 14.43 32.94 14.2 32.75 13.98 32.55 C 13.77 32.35 13.55 32.1 13.38 31.88 C 13.21 31.66 13.1 31.43 12.98 31.21 C 12.86 30.99 12.72 30.76 12.65 30.54 C 12.57 30.32 12.56 30.09 12.51 29.87 C 12.47 29.65 12.4 29.42 12.38 29.2 C 12.36 28.98 12.38 28.75 12.38 28.53 C 12.38 28.31 12.38 28.09 12.38 27.86 C 12.38 27.64 12.43 27.42 12.38 27.19 C 12.32 26.97 12.21 26.69 12.04 26.52 C 11.88 26.36 11.6 26.24 11.37 26.19 C 11.15 26.13 10.93 26.19 10.7 26.19 C 10.48 26.19 10.26 26.19 10.03 26.19 C 9.81 26.19 9.59 26.19 9.37 26.19 C 9.14 26.19 8.92 26.19 8.7 26.19 C 8.47 26.19 8.25 26.19 8.03 26.19 C 7.8 26.19 7.58 26.19 7.36 26.19 C 7.13 26.19 6.91 26.19 6.69 26.19 C 6.46 26.19 6.24 26.19 6.02 26.19 C 5.8 26.19 5.57 26.18 5.35 26.19 C 5.13 26.2 4.88 26.16 4.68 26.26 C 4.48 26.36 4.26 26.59 4.14 26.79 C 4.03 26.99 4.03 27.24 4.01 27.46 C 3.99 27.68 4.01 27.91 4.01 28.13 C 4.01 28.35 4.01 28.58 4.01 28.8 C 4.01 29.02 4.0 29.25 4.01 29.47 C 4.02 29.69 4.04 29.92 4.08 30.14 C 4.11 30.36 4.18 30.58 4.21 30.81 C 4.24 31.03 4.23 31.25 4.28 31.48 C 4.32 31.7 4.41 31.92 4.48 32.15 C 4.55 32.37 4.61 32.59 4.68 32.82 C 4.75 33.04 4.8 33.26 4.88 33.49 C 4.96 33.71 5.05 33.93 5.15 34.16 C 5.25 34.38 5.37 34.6 5.48 34.82 C 5.59 35.05 5.69 35.27 5.82 35.49 C 5.94 35.72 6.07 35.94 6.22 36.16 C 6.36 36.39 6.51 36.61 6.69 36.83 C 6.87 37.06 7.1 37.28 7.29 37.5 C 7.48 37.73 7.62 37.95 7.83 38.17 C 8.03 38.39 8.27 38.64 8.5 38.84 C 8.72 39.04 8.94 39.21 9.16 39.38 C 9.39 39.54 9.61 39.69 9.83 39.85 C 10.06 40.0 10.28 40.18 10.5 40.31 C 10.73 40.45 10.95 40.53 11.17 40.65 C 11.4 40.77 11.62 40.95 11.84 41.05 C 12.07 41.15 12.29 41.17 12.51 41.25 C 12.73 41.33 12.96 41.44 13.18 41.52 C 13.4 41.6 13.63 41.66 13.85 41.72 C 14.07 41.78 14.3 41.81 14.52 41.85 C 14.74 41.9 14.97 41.94 15.19 41.99 C 15.41 42.03 15.64 42.09 15.86 42.12 C 16.08 42.15 16.31 42.18 16.53 42.19 C 16.75 42.2 16.97 42.19 17.2 42.19 C 17.42 42.19 17.64 42.19 17.87 42.19 C 18.09 42.19 18.31 42.2 18.54 42.19 C 18.76 42.18 18.98 42.15 19.21 42.12 C 19.43 42.09 19.65 42.03 19.88 41.99 C 20.1 41.94 20.32 41.91 20.54 41.85 C 20.77 41.8 20.99 41.72 21.21 41.65 C 21.44 41.59 21.66 41.52 21.88 41.45 C 22.11 41.38 22.33 41.33 22.55 41.25 C 22.78 41.17 23.0 41.08 23.22 40.98 C 23.45 40.88 23.67 40.76 23.89 40.65 C 24.12 40.54 24.34 40.44 24.56 40.31 C 24.78 40.19 25.01 40.06 25.23 39.91 C 25.45 39.77 25.68 39.6 25.9 39.44 C 26.12 39.29 26.35 39.15 26.57 38.97 C 26.79 38.8 27.02 38.57 27.24 38.37 C 27.46 38.17 27.69 37.98 27.91 37.77 C 28.13 37.56 28.37 37.31 28.58 37.1 C 28.79 36.89 28.98 36.71 29.18 36.5 C 29.38 36.29 29.59 36.05 29.78 35.83 C 29.97 35.61 30.15 35.38 30.32 35.16 C 30.49 34.94 30.62 34.71 30.79 34.49 C 30.95 34.27 31.14 34.04 31.32 33.82 C 31.5 33.6 31.69 33.37 31.86 33.15 C 32.03 32.93 32.16 32.7 32.33 32.48 C 32.49 32.26 32.7 32.04 32.86 31.81 C 33.03 31.59 33.19 31.37 33.33 31.14 C 33.48 30.92 33.59 30.7 33.73 30.47 C 33.88 30.25 34.05 30.03 34.2 29.8 C 34.36 29.58 34.51 29.36 34.67 29.13 C 34.83 28.91 34.99 28.69 35.14 28.46 C 35.28 28.24 35.4 28.02 35.54 27.8 C 35.69 27.57 35.86 27.35 36.01 27.13 C 36.15 26.9 36.27 26.68 36.41 26.46 C 36.56 26.23 36.73 26.01 36.88 25.79 C 37.02 25.56 37.14 25.34 37.28 25.12 C 37.43 24.89 37.6 24.67 37.75 24.45 C 37.89 24.23 38.01 24.0 38.15 23.78 C 38.3 23.56 38.47 23.33 38.62 23.11 C 38.76 22.89 38.88 22.66 39.02 22.44 C 39.17 22.22 39.34 21.99 39.49 21.77 C 39.63 21.55 39.76 21.32 39.89 21.1 C 40.03 20.88 40.15 20.65 40.29 20.43 C 40.44 20.21 40.61 19.99 40.76 19.76 C 40.92 19.54 41.07 19.32 41.23 19.09 C 41.39 18.87 41.54 18.65 41.7 18.42 C 41.86 18.2 42.0 17.98 42.17 17.75 C 42.33 17.53 42.51 17.31 42.7 17.08 C 42.89 16.86 43.09 16.63 43.31 16.42 C 43.52 16.2 43.75 15.99 43.97 15.81 C 44.2 15.63 44.42 15.5 44.64 15.34 C 44.87 15.19 45.09 15.01 45.31 14.88 C 45.54 14.74 45.76 14.65 45.98 14.54 C 46.21 14.43 46.43 14.31 46.65 14.21 C 46.88 14.11 47.1 14.02 47.32 13.94 C 47.55 13.86 47.77 13.79 47.99 13.74 C 48.21 13.68 48.44 13.65 48.66 13.6 C 48.88 13.56 49.11 13.5 49.33 13.47 C 49.55 13.44 49.78 13.42 50.0 13.4 C 50.22 13.38 50.45 13.34 50.67 13.34 C 50.89 13.34 51.12 13.39 51.34 13.4 C 51.56 13.41 51.79 13.38 52.01 13.4 C 52.23 13.42 52.45 13.49 52.68 13.54 C 52.9 13.58 53.12 13.6 53.35 13.67 C 53.57 13.74 53.79 13.85 54.02 13.94 C 54.24 14.03 54.46 14.12 54.69 14.21 C 54.91 14.3 55.13 14.37 55.36 14.47 C 55.58 14.57 55.8 14.67 56.02 14.81 C 56.25 14.94 56.47 15.11 56.69 15.28 C 56.92 15.44 57.14 15.62 57.36 15.81 C 57.59 16.0 57.81 16.2 58.03 16.42 C 58.26 16.63 58.5 16.86 58.7 17.08 C 58.9 17.31 59.08 17.53 59.24 17.75 C 59.39 17.98 59.51 18.2 59.64 18.42 C 59.77 18.65 59.92 18.87 60.04 19.09 C 60.16 19.32 60.28 19.54 60.38 19.76 C 60.48 19.99 60.57 20.21 60.64 20.43 C 60.72 20.65 60.78 20.88 60.84 21.1 C 60.91 21.32 60.99 21.55 61.05 21.77 C 61.1 21.99 61.13 22.22 61.18 22.44 C 61.22 22.66 61.29 22.89 61.31 23.11 C 61.34 23.33 61.31 23.56 61.31 23.78 C 61.31 24.0 61.31 24.23 61.31 24.45 C 61.31 24.67 61.34 24.89 61.31 25.12 C 61.29 25.34 61.22 25.56 61.18 25.79 C 61.13 26.01 61.09 26.23 61.05 26.46 C 61.0 26.68 60.98 26.9 60.91 27.13 C 60.84 27.35 60.73 27.57 60.64 27.8 C 60.55 28.02 60.48 28.24 60.38 28.46 C 60.28 28.69 60.16 28.91 60.04 29.13 C 59.92 29.36 59.78 29.58 59.64 29.8 C 59.49 30.03 59.34 30.25 59.17 30.47 C 59.0 30.7 58.83 30.92 58.64 31.14 C 58.45 31.37 58.25 31.6 58.03 31.81 C 57.82 32.02 57.59 32.24 57.36 32.41 C 57.14 32.59 56.92 32.73 56.69 32.88 C 56.47 33.04 56.25 33.22 56.02 33.35 C 55.8 33.49 55.58 33.57 55.36 33.69 C 55.13 33.8 54.91 33.92 54.69 34.02 C 54.46 34.12 54.24 34.21 54.02 34.29 C 53.79 34.37 53.57 34.43 53.35 34.49 C 53.12 34.55 52.9 34.59 52.68 34.62 C 52.45 34.66 52.23 34.67 52.01 34.69 C 51.79 34.71 51.56 34.74 51.34 34.76 C 51.12 34.78 50.89 34.82 50.67 34.82 C 50.45 34.82 50.22 34.77 50.0 34.76 C 49.78 34.75 49.55 34.78 49.33 34.76 C 49.11 34.74 48.88 34.68 48.66 34.62 C 48.44 34.57 48.21 34.49 47.99 34.42 C 47.77 34.36 47.55 34.3 47.32 34.22 C 47.1 34.14 46.88 34.04 46.65 33.95 C 46.43 33.87 46.21 33.8 45.98 33.69 C 45.76 33.57 45.54 33.42 45.31 33.28 C 45.09 33.15 44.87 33.04 44.64 32.88 C 44.42 32.73 44.2 32.54 43.97 32.35 C 43.75 32.16 43.52 31.96 43.31 31.75 C 43.09 31.53 42.89 31.3 42.7 31.08 C 42.51 30.85 42.33 30.63 42.17 30.41 C 42.0 30.18 41.84 29.96 41.7 29.74 C 41.55 29.51 41.41 29.29 41.3 29.07 C 41.19 28.84 41.12 28.62 41.03 28.4 C 40.94 28.17 40.85 27.95 40.76 27.73 C 40.67 27.51 40.57 27.28 40.49 27.06 C 40.42 26.84 40.38 26.59 40.29 26.39 C 40.2 26.19 40.09 25.85 39.96 25.85 C 39.82 25.85 39.63 26.19 39.49 26.39 C 39.34 26.59 39.23 26.84 39.09 27.06 C 38.94 27.28 38.76 27.51 38.62 27.73 C 38.47 27.95 38.35 28.17 38.22 28.4 C 38.08 28.62 37.96 28.84 37.82 29.07 C 37.67 29.29 37.5 29.51 37.35 29.74 C 37.19 29.96 37.02 30.18 36.88 30.41 C 36.73 30.63 36.62 30.85 36.48 31.08 C 36.33 31.3 36.16 31.52 36.01 31.75 C 35.85 31.97 35.7 32.19 35.54 32.41 C 35.38 32.64 35.19 32.86 35.07 33.08 C 34.95 33.31 34.79 33.53 34.8 33.75 C 34.82 33.98 35.0 34.2 35.14 34.42 C 35.27 34.65 35.45 34.87 35.61 35.09 C 35.76 35.32 35.91 35.54 36.08 35.76 C 36.24 35.98 36.42 36.21 36.61 36.43 C 36.8 36.65 37.0 36.88 37.21 37.1 C 37.43 37.32 37.66 37.55 37.88 37.77 C 38.11 37.99 38.33 38.24 38.55 38.44 C 38.78 38.64 39.0 38.8 39.22 38.97 C 39.45 39.15 39.67 39.34 39.89 39.51 C 40.11 39.68 40.34 39.83 40.56 39.98 C 40.78 40.12 41.01 40.26 41.23 40.38 C 41.45 40.5 41.68 40.6 41.9 40.72 C 42.12 40.83 42.35 40.94 42.57 41.05 C 42.79 41.16 43.02 41.28 43.24 41.38 C 43.46 41.49 43.68 41.56 43.91 41.65 C 44.13 41.74 44.35 41.84 44.58 41.92 C 44.8 42.0 45.02 42.05 45.25 42.12 C 45.47 42.19 45.69 42.27 45.92 42.32 C 46.14 42.38 46.36 42.4 46.59 42.46 C 46.81 42.51 47.03 42.61 47.26 42.66 C 47.48 42.7 47.7 42.69 47.92 42.72 C 48.15 42.76 48.37 42.82 48.59 42.86 C 48.82 42.89 49.04 42.91 49.26 42.92 C 49.49 42.94 49.71 42.91 49.93 42.92 C 50.16 42.94 50.38 42.98 50.6 42.99 C 50.83 43.0 51.05 43.0 51.27 42.99 C 51.49 42.98 51.72 42.95 51.94 42.92 C 52.16 42.9 52.39 42.88 52.61 42.86 C 52.83 42.84 53.06 42.81 53.28 42.79 C 53.5 42.77 53.73 42.76 53.95 42.72 C 54.17 42.69 54.4 42.65 54.62 42.59 C 54.84 42.53 55.07 42.46 55.29 42.39 C 55.51 42.32 55.73 42.26 55.96 42.19 C 56.18 42.12 56.4 42.05 56.63 41.99 C 56.85 41.92 57.07 41.86 57.3 41.79 C 57.52 41.71 57.74 41.61 57.97 41.52 C 58.19 41.43 58.41 41.35 58.64 41.25 C 58.86 41.15 59.08 41.04 59.3 40.92 C 59.53 40.79 59.75 40.64 59.97 40.51 C 60.2 40.39 60.42 40.31 60.64 40.18 C 60.87 40.05 61.09 39.87 61.31 39.71 C 61.54 39.56 61.76 39.41 61.98 39.24 C 62.21 39.08 62.43 38.9 62.65 38.71 C 62.88 38.52 63.1 38.32 63.32 38.1 C 63.54 37.89 63.77 37.66 63.99 37.44 C 64.21 37.21 64.45 36.99 64.66 36.77 C 64.87 36.54 65.07 36.32 65.26 36.1 C 65.45 35.87 65.63 35.65 65.8 35.43 C 65.97 35.2 66.12 34.98 66.27 34.76 C 66.41 34.53 66.53 34.31 66.67 34.09 C 66.8 33.87 66.95 33.64 67.07 33.42 C 67.19 33.2 67.29 32.97 67.41 32.75 C 67.52 32.53 67.64 32.3 67.74 32.08 C 67.84 31.86 67.92 31.63 68.01 31.41 C 68.1 31.19 68.19 30.96 68.28 30.74 C 68.36 30.52 68.46 30.29 68.54 30.07 C 68.62 29.85 68.68 29.63 68.74 29.4 C 68.81 29.18 68.89 28.96 68.94 28.73 C 69.0 28.51 69.03 28.29 69.08 28.06 C 69.12 27.84 69.17 27.62 69.21 27.39 C 69.26 27.17 69.31 26.95 69.35 26.72 C 69.38 26.5 69.38 26.28 69.41 26.05 C 69.45 25.83 69.53 25.61 69.55 25.39 C 69.57 25.16 69.55 24.94 69.55 24.72 C 69.55 24.49 69.55 24.27 69.55 24.05 C 69.55 23.82 69.55 23.6 69.55 23.38 C 69.55 23.15 69.57 22.93 69.55 22.71 C 69.53 22.48 69.45 22.26 69.41 22.04 C 69.38 21.82 69.37 21.59 69.35 21.37 C 69.32 21.15 69.31 20.92 69.28 20.7 C 69.25 20.48 69.2 20.25 69.15 20.03 C 69.09 19.81 69.01 19.58 68.94 19.36 C 68.88 19.14 68.81 18.91 68.74 18.69 C 68.68 18.47 68.61 18.24 68.54 18.02 C 68.48 17.8 68.43 17.58 68.34 17.35 C 68.25 17.13 68.11 16.91 68.01 16.68 C 67.91 16.46 67.84 16.24 67.74 16.01 C 67.64 15.79 67.53 15.57 67.41 15.34 C 67.28 15.12 67.14 14.9 67.0 14.67 C 66.87 14.45 66.74 14.23 66.6 14.01 C 66.47 13.78 66.35 13.56 66.2 13.34 C 66.06 13.11 65.9 12.89 65.73 12.67 C 65.56 12.44 65.39 12.22 65.2 12.0 C 65.01 11.77 64.79 11.55 64.59 11.33 C 64.39 11.1 64.2 10.87 63.99 10.66 C 63.78 10.45 63.54 10.26 63.32 10.06 C 63.1 9.85 62.88 9.64 62.65 9.45 C 62.43 9.26 62.21 9.08 61.98 8.92 C 61.76 8.75 61.54 8.6 61.31 8.45 C 61.09 8.29 60.87 8.13 60.64 7.98 C 60.42 7.84 60.2 7.71 59.97 7.58 C 59.75 7.44 59.53 7.3 59.3 7.18 C 59.08 7.05 58.86 6.94 58.64 6.84 C 58.41 6.74 58.19 6.66 57.97 6.57 C 57.74 6.49 57.52 6.38 57.3 6.31 C 57.07 6.23 56.85 6.18 56.63 6.11 C 56.4 6.03 56.18 5.91 55.96 5.84 C 55.73 5.77 55.51 5.76 55.29 5.7 C 55.07 5.65 54.84 5.56 54.62 5.5 C 54.4 5.45 54.17 5.4 53.95 5.37 C 53.73 5.34 53.5 5.34 53.28 5.3 C 53.06 5.27 52.83 5.2 52.61 5.17 C 52.39 5.14 52.16 5.11 51.94 5.1 C 51.72 5.09 51.49 5.1 51.27 5.1 C 51.05 5.1 50.83 5.1 50.6 5.1 C 50.38 5.1 50.16 5.09 49.93 5.1 C 49.71 5.11 49.49 5.15 49.26 5.17 C 49.04 5.19 48.82 5.21 48.59 5.24 C 48.37 5.26 48.15 5.27 47.92 5.3 C 47.7 5.34 47.48 5.39 47.26 5.44 C 47.03 5.48 46.81 5.53 46.59 5.57 C 46.36 5.62 46.14 5.65 45.92 5.7 C 45.69 5.76 45.47 5.83 45.25 5.91 C 45.02 5.98 44.8 6.08 44.58 6.17 C 44.35 6.26 44.13 6.35 43.91 6.44 C 43.68 6.53 43.46 6.62 43.24 6.71 C 43.02 6.8 42.79 6.88 42.57 6.98 C 42.35 7.08 42.12 7.19 41.9 7.31 C 41.68 7.43 41.45 7.58 41.23 7.71 C 41.01 7.85 40.78 7.97 40.56 8.11 C 40.34 8.26 40.11 8.42 39.89 8.58 C 39.67 8.75 39.45 8.94 39.22 9.12 C 39.0 9.3 38.78 9.46 38.55 9.65 C 38.33 9.84 38.11 10.04 37.88 10.26 C 37.66 10.47 37.43 10.7 37.21 10.93 C 37.0 11.15 36.8 11.37 36.61 11.6 C 36.42 11.82 36.25 12.04 36.08 12.26 C 35.9 12.49 35.71 12.71 35.54 12.93 C 35.37 13.16 35.22 13.38 35.07 13.6 C 34.93 13.83 34.82 14.05 34.67 14.27 C 34.52 14.5 34.35 14.72 34.2 14.94 C 34.06 15.17 33.93 15.39 33.8 15.61 C 33.67 15.83 33.54 16.06 33.4 16.28 C 33.25 16.5 33.09 16.73 32.93 16.95 C 32.77 17.17 32.61 17.4 32.46 17.62 C 32.32 17.84 32.19 18.07 32.06 18.29 C 31.93 18.51 31.8 18.74 31.66 18.96 C 31.51 19.18 31.33 19.41 31.19 19.63 C 31.04 19.85 30.93 20.09 30.79 20.3 C 30.64 20.51 30.47 20.86 30.32 20.9 C 30.16 20.95 29.93 20.73 29.85 20.57 C 29.77 20.4 29.85 20.12 29.85 19.9 C 29.85 19.67 29.85 19.45 29.85 19.23 C 29.85 19.0 29.85 18.78 29.85 18.56 C 29.85 18.33 29.85 18.11 29.85 17.89 C 29.85 17.66 29.84 17.44 29.85 17.22 C 29.86 17.0 29.89 16.77 29.92 16.55 C 29.94 16.33 29.98 16.1 29.98 15.88 C 29.98 15.66 29.93 15.43 29.92 15.21 C 29.91 14.99 29.92 14.76 29.92 14.54 C 29.92 14.32 29.92 14.09 29.92 13.87 C 29.92 13.65 29.92 13.42 29.92 13.2 C 29.92 12.98 29.92 12.76 29.92 12.53 C 29.92 12.31 29.92 12.09 29.92 11.86 C 29.92 11.64 29.92 11.42 29.92 11.19 C 29.92 10.97 29.92 10.75 29.92 10.52 C 29.92 10.3 29.92 10.08 29.92 9.85 C 29.92 9.63 29.92 9.41 29.92 9.19 C 29.92 8.96 29.92 8.74 29.92 8.52 C 29.92 8.29 29.92 8.07 29.92 7.85 C 29.92 7.62 29.92 7.4 29.92 7.18 C 29.92 6.95 29.92 6.73 29.92 6.51 C 29.92 6.28 29.97 6.06 29.92 5.84 C 29.86 5.62 29.75 5.3 29.58 5.17 C 29.41 5.03 29.14 5.06 28.91 5.03 C 28.69 5.01 28.47 5.03 28.24 5.03 C 28.02 5.03 27.8 5.03 27.57 5.03 C 27.35 5.03 27.13 5.03 26.9 5.03 C 26.68 5.03 26.46 5.03 26.24 5.03 C 26.01 5.03 25.79 5.03 25.57 5.03 C 25.34 5.03 25.12 5.03 24.9 5.03 C 24.67 5.03 24.45 5.03 24.23 5.03 C 24.0 5.03 23.78 5.03 23.56 5.03 C 23.33 5.03 23.1 5.03 22.89 5.03 C 22.68 5.03 22.49 4.96 22.29 5.03 Z"
        fill="#FFFFFF"
        fill-rule="evenodd"
        stroke="none"/>
  <text x="79.6" y="32.5" font-family="Urbanist, 'Segoe UI', sans-serif" font-size="26" font-weight="700" letter-spacing="0.2" fill="#FFFFFF">JoinOrigin</text>
</svg>
